<?xml version="1.0" encoding="UTF-8" standalone="no"?>
<svg
   xmlns:dc="http://purl.org/dc/elements/1.1/"
   xmlns:cc="http://creativecommons.org/ns#"
   xmlns:rdf="http://www.w3.org/1999/02/22-rdf-syntax-ns#"
   xmlns:svg="http://www.w3.org/2000/svg"
   xmlns="http://www.w3.org/2000/svg"
   viewBox="0 0 240 138.98399"
   height="138.98399"
   width="240"
   xml:space="preserve"
   id="svg2"
   version="1.1"><metadata
     id="metadata8"><rdf:RDF><cc:Work
         rdf:about=""><dc:format>image/svg+xml</dc:format><dc:type
           rdf:resource="http://purl.org/dc/dcmitype/StillImage" /></cc:Work></rdf:RDF></metadata><defs
     id="defs6"><clipPath
       id="clipPath30"
       clipPathUnits="userSpaceOnUse"><path
         id="path28"
         d="M 0,104.238 H 372.11 V 0 H 0 Z" /></clipPath></defs><g
     transform="matrix(1.3333333,0,0,-1.3333333,0,138.984)"
     id="g10"><g
       transform="translate(35.8517,51.6998)"
       id="g12"><path
         id="path14"
         style="fill:#fff;fill-opacity:1;fill-rule:nonzero;stroke:none"
         d="m 0,0 v -14.52 l -4.965,2.868 V 8.604 L 11.485,-0.898 27.932,8.6 v -20.25 l -5.004,-2.89 V -0.025 L 11.485,-6.633 0,0.002 M 11.483,28.409 -13.886,13.754 v -30.56 l 25.372,-14.652 25.367,14.652 v 30.56 z" /></g><g
       transform="translate(107.7907,51.0557)"
       id="g16"><path
         id="path18"
         style="fill:#fff;fill-opacity:1;fill-rule:nonzero;stroke:none"
         d="m 0,0 -8.784,16.618 h -6.292 V -15.35 h 6.738 V 2.772 l 6.349,-12.505 4.17,0.198 6.121,12.406 V -15.35 h 6.779 V 16.618 L 8.384,16.424 Z" /></g><g
       transform="translate(127.2081,35.7056)"
       id="g20"><path
         id="path22"
         style="fill:#fff;fill-opacity:1;fill-rule:nonzero;stroke:none"
         d="M 0,0 H 20.193 V 6.056 H 7.056 V 13.5 h 11.777 v 6.056 H 7.056 v 6.309 h 13.137 v 6.103 L 0,31.968 Z" /></g><g
       id="g24"><g
         clip-path="url(#clipPath30)"
         id="g26"><g
           transform="translate(163.1837,54.7061)"
           id="g32"><path
             id="path34"
             style="fill:#fff;fill-opacity:1;fill-rule:nonzero;stroke:none"
             d="m 0,0 c -4.406,1.103 -5.893,2.168 -5.893,4.231 0,1.991 1.434,3.087 4.039,3.087 2.875,0 4.463,-0.815 5.864,-3.006 L 4.21,3.996 9.547,7.808 9.364,8.094 c -2.262,3.504 -6.052,5.28 -11.263,5.28 -6.917,0 -11.046,-3.418 -11.046,-9.143 0,-5.164 3.022,-8.367 9.507,-10.083 5.174,-1.339 6.121,-2.523 6.121,-4.369 0,-2.05 -1.552,-3.132 -4.492,-3.132 -2.92,0 -4.806,0.868 -6.517,2.993 l -0.209,0.257 -5.426,-3.752 0.228,-0.294 c 2.773,-3.639 6.579,-5.26 12.333,-5.26 6.872,0 11.139,3.626 11.139,9.462 C 9.739,-4.541 7.007,-1.751 0,0" /></g><g
           transform="translate(193.8795,55.2618)"
           id="g36"><path
             id="path38"
             style="fill:#fff;fill-opacity:1;fill-rule:nonzero;stroke:none"
             d="m 0,0 h -10.115 v 12.412 h -7.056 v -31.968 h 7.056 v 13.5 H 0 v -13.5 h 7.053 v 31.968 l -7.053,0 z" /></g><g
           transform="translate(242.1344,67.6734)"
           id="g40"><path
             id="path42"
             style="fill:#fff;fill-opacity:1;fill-rule:nonzero;stroke:none"
             d="m 0,0 -8.522,-0.145 -9.233,-12.622 V 0 h -7.057 v -31.968 h 7.057 l -0.073,8.428 3.401,4.482 8.004,-12.91 h 8.199 l -11.768,18.76 z" /></g><g
           transform="translate(251.0778,53.9102)"
           id="g44"><path
             id="path46"
             style="fill:#fff;fill-opacity:1;fill-rule:nonzero;stroke:none"
             d="m 0,0 c 0,5.537 1.67,8.114 5.26,8.114 3.622,0 5.308,-2.577 5.308,-8.114 v -4.441 c 0,-5.538 -1.686,-8.116 -5.308,-8.116 -3.59,0 -5.26,2.578 -5.26,8.116 z M 5.26,14.169 C -2.683,14.169 -7.057,9.139 -7.057,0 v -4.441 c 0,-9.006 4.489,-14.172 12.317,-14.172 7.856,0 12.36,5.166 12.36,14.172 V 0 c 0,9.139 -4.39,14.169 -12.36,14.169" /></g><g
           transform="translate(283.942,54.0367)"
           id="g48"><path
             id="path50"
             style="fill:#fff;fill-opacity:1;fill-rule:nonzero;stroke:none"
             d="M 0,0 H -3.904 V 7.534 H 0 c 4.018,0 5.582,-1.068 5.582,-3.81 C 5.582,1.009 4.067,0 0,0 m 12.635,3.724 c 0,6.301 -4.391,9.913 -12.043,9.913 h -11.548 v -31.968 h 7.052 V -6.04 l 4.398,0.192 5.942,-12.483 h 7.542 L 7.416,-4.837 c 3.417,1.55 5.219,4.502 5.219,8.561" /></g><g
           transform="translate(300.7252,35.7056)"
           id="g52"><path
             id="path54"
             style="fill:#fff;fill-opacity:1;fill-rule:nonzero;stroke:none"
             d="M 0,0 H 20.193 V 6.056 H 7.057 V 13.5 h 11.776 v 6.056 H 7.057 v 6.309 h 13.136 v 6.103 L 0,31.968 Z" /></g><g
           transform="translate(334.1569,47.6949)"
           id="g56"><path
             id="path58"
             style="fill:#fff;fill-opacity:1;fill-rule:nonzero;stroke:none"
             d="M 0,0 3.047,9.49 6.097,0 Z m 6.085,19.979 -6.322,-0.013 -11.119,-31.955 h 7.554 l 1.904,5.933 h 9.939 l 1.902,-5.933 h 7.51 z" /></g></g></g></g></svg>